<svg xmlns="http://www.w3.org/2000/svg" id="_レイヤー_1" data-name="レイヤー_1" version="1.1" viewBox="0 0 192 192"><defs><style>.st0{fill:#fff}</style></defs><rect width="192" height="192" rx="28" ry="28" style="fill:#2f52a2"/><path d="M9.8 124.96V57.81h16.13l14.34 20.54L54.7 57.81h16.22v67.15h-16.3V84.3l-14.26 18.5-14.18-18.59v40.75H9.8zM132 57.48h-14.13c-5.73 0-25.68 0-34.51 22.03-4.62 11.53-6.88 33.57 6.11 55.01l13.5-9.85s-5.35-7.64-7.55-22.24h20.2l.17 22.24h18.16V73.91h-18v14.26L98.8 88s2.89-16.81 20.08-16.3h17.1l-3.99-14.22ZM145.48 57.97h16.17v52.59h22.55l-3.69 14.24h-35.03V57.97z" class="st0"/><script/></svg>