<svg xmlns="http://www.w3.org/2000/svg" xmlns:xlink="http://www.w3.org/1999/xlink" xml:space="preserve" width="1000" height="1000" viewBox="0 0 264.583 264.583"><defs><pattern xlink:href="#a" id="d" width="12" height="12" x="0" y="0" patternTransform="matrix(.1 0 0 .1 307.922 -100.786)" preserveAspectRatio="xMidYMid"/><pattern id="a" width="10" height="10" x="0" y="0" patternTransform="translate(307.922 -100.786)" patternUnits="userSpaceOnUse" preserveAspectRatio="xMidYMid" style="fill:#000"><circle cx="5" cy="5" r="5" style="display:inline;fill-opacity:1;stroke-width:6;stroke-linecap:square;paint-order:markers fill stroke;stop-color:#000"/></pattern><pattern xlink:href="#b" id="c" width="12" height="12" x="0" y="0" patternTransform="matrix(.1 0 0 .1 307.922 -100.786)" preserveAspectRatio="xMidYMid"/><pattern id="b" width="10" height="10" x="0" y="0" patternTransform="translate(307.922 -100.786)" patternUnits="userSpaceOnUse" preserveAspectRatio="xMidYMid" style="fill:#000"><circle cx="5" cy="5" r="5" style="display:inline;fill-opacity:1;stroke-width:6;stroke-linecap:square;paint-order:markers fill stroke;stop-color:#000"/></pattern></defs><g style="display:inline"><path d="M125.459 9.44c-17.829.657-43.831 3.469-54.41 19.524-10.021 15.21-35.09 51.753-41.093 68.105-14.524 39.57-16.938 58.869-3.16 89.599 14.701 32.793 52.493 66.2 113.087 66.16 39.172-.026 67.879-22.27 85.334-49.877 17.455-27.606 24.454-60.512 21.08-85.023-4.764-34.604-18.37-61.25-39.303-79.385-20.932-18.136-51.75-30.202-81.535-29.104Z" style="display:inline;opacity:1;fill:#1c1917;fill-opacity:1;stroke-width:.264583"/><path d="M125.185 15.304c63.407 2.949 106.066 36.379 115.296 103.425 6.236 45.303-26.641 128.179-100.601 128.228-116.906.078-132.728-127.782-102.068-112.95 27.438 13.275 46.158 48.877 83.434 38.283 29.75-8.455 28.96-25.954 34.077-51.149 5.289-26.048-.01-56.188-16.124-72.915-18.51-19.213-41.544-19.906-52.413-19.432-19.811.864 12.329-14.702 38.399-13.49Z" style="display:inline;opacity:1;fill:#ff8904;fill-opacity:1;stroke-width:.264583"/></g><g style="display:inline"><path d="M71.238 40.008s3.054-7.027 14.679-7.771c6.125-.392 29.775-1.428 45.189 13.672 14.08 13.793 16.993 26.692 19.428 37.417 3.5 15.412.144 46.916-4.317 59.437-4.461 12.52-8.635 21.731-30.654 26.049-22.019 4.317-29.79-4.102-52.672-22.38-22.883-18.276-24.666-14.741-29.503-18.132-1.824-1.279-1.824-6.44 5.469-6.476 7.661-.038 19.748 11.85 19.748 11.85s6.732 8.226 11.193 6.93c4.462-1.295 5.901-5.468 1.008-4.605-4.893.864-5.181.432-13.672-6.62-8.49-7.052-8.825-6.952-14.248-9.642-3.639-1.806-2.737-.666-4.395-1.984-.697-.554-.438-5.297-.438-5.297s.948-3.081 4.258-4.088c3.31-1.008 6.188-1.296 4.461-4.03-1.727-2.734-2.59-3.742-2.59-3.742h-1.008s.144 3.454-1.439 3.742c-1.583.288-3.13.264-3.742.144-.112-.022-3.454-2.015-2.158-6.332 1.295-4.318 35.403-58.142 35.403-58.142z" style="display:inline;opacity:1;fill:#f5f5f4;fill-opacity:1;stroke-width:.264583"/><path d="M90.467 36.533c6.208 1.933 3.46 9.464.102 12.008-3.358 2.544-8.04 6.004-15.265 4.681-7.225-1.323-3.358-7.53-1.322-9.77 2.78-3.058 9.396-9.127 16.485-6.92zM61.02 60.3s3.598 6.476 18.133-1.439 35.978-14.248 44.47-11.801c8.49 2.447 16.406 10.218 14.679 19.428-1.727 9.211-10.938 11.226-19.86 7.34-8.923-3.886-19.141-10.218-18.71 2.159.432 12.376-12.664 20.148-23.89 18.565-11.224-1.583-11.368-15.543-14.247-18.71-2.878-3.165-3.598-1.582-4.605-6.187 8.06 2.014 4.03-9.355 4.03-9.355z" style="display:inline;opacity:1;fill:#1c1917;fill-opacity:1;stroke-width:.264583"/><path d="M142.511 74.296c1.008 3.593-1.88 10.705-5.71 14.5-5.654 5.603-11.473 5.608-17.64-.145-2.172-2.026-3.17-3.364-4.657-6.544-1.198-2.564-1.278-5.709 4.081-2.522 4.735 2.815 11.647 1.94 16.077-.61 3.022-1.74 6.915-8.01 7.85-4.68z" style="display:inline;opacity:1;fill:#1c1917;fill-opacity:1;stroke-width:.264583"/><path d="M95.86 77.085c-.1 1.938 1.12 6.055-4.426 10.533-6.195 5.001-14.501 4.783-16.028 4.376-1.526-.407-4.07-1.12-6.41-6.106-2.341-4.987-1.629-4.783-1.018-5.394.61-.61 1.831-.407 2.849 1.832 1.018 2.239 2.544 5.8 5.088 2.442 2.544-3.358 2.442-6.105 2.442-7.123 0-1.018-.203-1.832 2.748-3.053 2.951-1.221 11.245-4.3 13.28-2.518 1.854 1.622 1.534 3.875 1.476 5.011z" style="display:inline;opacity:1;fill:#f5f5f4;fill-opacity:1;stroke-width:.264583"/><path d="M51.696 101.966s10.176 6.106 37.652 3.053 42.13 4.478 47.014 10.38c4.885 5.902 10.38 16.893-2.239 32.768-12.618 15.875-28.697 17.91-41.315 13.432-12.619-4.477-18.725-9.158-15.061-21.777 3.663-12.618 23.609-13.229 25.237-13.433 1.628-.203 16.69.407 6.106-3.867-10.584-4.274-14.764-2.487-22.185-3.46-12.536-1.642-20.177-4.558-28.9-9.972-11.805-7.327-6.31-7.124-6.31-7.124z" style="display:inline;opacity:1;fill:#1c1917;fill-opacity:1;stroke-width:.264583"/></g><g style="display:inline"><path d="M30.07 177.31c1.342-2.83 3.03-3.39 3.678-9.218.648-5.829-.288-12.593-.288-12.593s.216-4.82 5.397-4.317c5.18.504 5.828 9.283 5.828 9.283s-.431 13.384-2.95 18.78c-2.518 5.397-5.536 10.93-5.536 10.93s-2.649-4.913-4.025-7.635c-1.377-2.722-1.481-3.252-2.104-5.23zM41.551 198.777s3.854-2.478 6.085-7.011c2.23-4.533 3.454-19.14 3.454-19.14s.935-12.81 8.922-13.24C68 158.952 70.878 169.386 70.59 173.2c-.288 3.814-3 13.905-8.253 21.173-5.252 7.267-11.496 16.234-11.496 16.234l-5.834-6.753zM59.653 219.218s16.406-18.673 19.788-27.596c3.382-8.923 6.83-15.369 14.898-14.555 8.14.822 9.747 13.736 8.441 17.809-.923 2.881-3.723 16.178-23.94 29.715-2.925 1.958-6.222 4.366-6.848 3.975-2.111-1.317-5.196-3.247-7.753-5.255-2.557-2.008-4.586-4.093-4.586-4.093z" style="display:inline;opacity:1;fill:#f5f5f4;fill-opacity:1;stroke-width:.264583"/></g><g style="display:inline"><path d="M24.587 157.164c1.336 19.215 20.694 64.528 67.305 81.47 29.5 10.722 61.362 11.127 83.218 1.476 20.585-9.089 35.868-25.517 43.64-37.766 15.11-23.818 18.745-43.39 18.745-43.39s-14.716 48.57-67.1 61.235C118.01 232.853 59.167 210.1 36.842 164.638c-16.304-33.202-12.6-12.42-12.255-7.474Z" style="opacity:1;fill:url(#c);fill-opacity:1;stroke-width:.264583"/><path d="M81.743 36.842s25.473-1.87 42.311 13.672c16.838 15.543 19.86 25.76 21.587 52.097 1.977 30.137 3.742 27.056 3.742 27.056s8.995-41.591-6.188-68c-5.973-10.388-15.699-21.853-27.46-25.506-14.217-4.416-27.06-5.864-36.444-2.629-12.758 4.398 2.452 3.31 2.452 3.31z" style="opacity:1;fill:url(#d);fill-opacity:1;stroke-width:.264583"/></g></svg>